<?xml version="1.0" encoding="UTF-8" standalone="no"?>
<svg
   xmlns:dc="http://purl.org/dc/elements/1.1/"
   xmlns:cc="http://creativecommons.org/ns#"
   xmlns:rdf="http://www.w3.org/1999/02/22-rdf-syntax-ns#"
   xmlns:svg="http://www.w3.org/2000/svg"
   xmlns="http://www.w3.org/2000/svg"
   xmlns:xlink="http://www.w3.org/1999/xlink"
   xmlns:sodipodi="http://sodipodi.sourceforge.net/DTD/sodipodi-0.dtd"
   xmlns:inkscape="http://www.inkscape.org/namespaces/inkscape"
   viewBox="-147 -68 332.082 344.70022"
   id="svg2"
   version="1.1"
   inkscape:version="0.48.4 r9939"
   width="100%"
   height="100%"
   sodipodi:docname="Android_robot.svg"
   inkscape:export-filename="C:\Users\prometheus\AndroidStudioProjects\CebuanoEnglish01Project\artwork\Android_robot.png"
   inkscape:export-xdpi="90.861557"
   inkscape:export-ydpi="90.861557">
  <metadata
     id="metadata33">
    <rdf:RDF>
      <cc:Work
         rdf:about="">
        <dc:format>image/svg+xml</dc:format>
        <dc:type
           rdf:resource="http://purl.org/dc/dcmitype/StillImage" />
        <dc:title></dc:title>
      </cc:Work>
    </rdf:RDF>
  </metadata>
  <defs
     id="defs31">
    <inkscape:path-effect
       effect="vonkoch"
       id="path-effect3838"
       is_visible="true"
       ref_path="m -46,0 8,0"
       generator="m -46,4 2.666667,0 M -40.666667,4 -38,4"
       similar_only="false"
       nbgenerations="1"
       drawall="true"
       maxComplexity="1000" />
    <inkscape:path-effect
       effect="spiro"
       id="path-effect3836"
       is_visible="true" />
    <inkscape:path-effect
       effect="skeletal"
       id="path-effect3834"
       is_visible="true"
       pattern="M 0,0 1,0"
       copytype="single_stretched"
       prop_scale="1"
       scale_y_rel="false"
       spacing="0"
       normal_offset="0"
       tang_offset="0"
       prop_units="false"
       vertical_pattern="false"
       fuse_tolerance="0" />
    <inkscape:path-effect
       effect="knot"
       id="path-effect3832"
       is_visible="true"
       interruption_width="3"
       prop_to_stroke_width="true"
       add_stroke_width="true"
       add_other_stroke_width="true"
       switcher_size="15"
       crossing_points_vector="-38 | -9.7968508e-016 | 0 | 0 | 0 | 1 | 4 | 4.179198 | 1" />
    <inkscape:path-effect
       effect="envelope"
       id="path-effect3830"
       is_visible="true"
       yy="true"
       xx="true"
       bendpath1="m -46,-4 8,0"
       bendpath2="m -38,-4 0,8"
       bendpath3="m -46,4 8,0"
       bendpath4="m -46,-4 0,8" />
    <inkscape:path-effect
       effect="gears"
       id="path-effect3828"
       is_visible="true"
       teeth="9"
       phi="5.8" />
  </defs>
  <sodipodi:namedview
     pagecolor="#ffffff"
     bordercolor="#666666"
     borderopacity="1"
     objecttolerance="10"
     gridtolerance="10"
     guidetolerance="10"
     inkscape:pageopacity="0"
     inkscape:pageshadow="2"
     inkscape:window-width="946"
     inkscape:window-height="698"
     id="namedview29"
     showgrid="false"
     inkscape:zoom="1.3"
     inkscape:cx="150.06604"
     inkscape:cy="171.51123"
     inkscape:window-x="401"
     inkscape:window-y="0"
     inkscape:window-maximized="0"
     inkscape:current-layer="svg2"
     fit-margin-top="0"
     fit-margin-left="0"
     fit-margin-right="0"
     fit-margin-bottom="0">
    <inkscape:grid
       type="xygrid"
       id="grid3051"
       empspacing="5"
       visible="true"
       enabled="true"
       snapvisiblegridlinesonly="true"
       originx="-17.511749px"
       originy="0.011226938px" />
  </sodipodi:namedview>
  <g
     id="g3870"
     transform="translate(-1.5117489,1.6889891)">
    <ellipse
       transform="translate(40,0)"
       style="fill:#a4c639;stroke:#ffffff;stroke-width:14.39999962"
       cy="41"
       rx="91"
       ry="84"
       id="ellipse3021"
       cx="0"
       sodipodi:cx="0"
       sodipodi:cy="41"
       sodipodi:rx="91"
       sodipodi:ry="84"
       d="m 91,41 c 0,46.391919 -40.742088,84 -91,84 -50.257912,0 -91,-37.608081 -91,-84 0,-46.391919 40.742088,-84 91,-84 50.257912,0 91,37.608081 91,84 z" />
    <rect
       style="fill:#a4c639;stroke:#ffffff;stroke-width:14.39999962"
       rx="22"
       height="182"
       width="182"
       y="20"
       x="-51"
       id="rect3023" />
    <rect
       transform="scale(-1,1)"
       style="fill:#ffff00;stroke:#ffffff;stroke-width:7.19999981"
       id="rect3031"
       rx="24"
       height="133"
       width="48"
       y="41"
       x="-183" />
    <use
       inkscape:transform-center-x="2.6265615"
       inkscape:transform-center-y="39.35585"
       transform="matrix(0.89340595,-0.44925026,-0.44925026,-0.89340595,150.33436,304.38762)"
       style="fill:#000080;stroke:#ffffff;stroke-width:7.19999981"
       y="97"
       x="85"
       xlink:href="#c"
       id="use3033"
       width="294"
       height="343" />
    <rect
       inkscape:transform-center-x="20.077797"
       transform="matrix(-0.89682167,0.44239224,-0.44239224,-0.89682167,0,0)"
       inkscape:transform-center-y="-40.701913"
       x="74.32827"
       y="-41.872818"
       width="48"
       height="133"
       rx="24"
       id="c"
       style="fill:#ffff00;stroke:#ffffff;stroke-width:7.19999981" />
    <use
       inkscape:transform-center-x="0.19033474"
       transform="matrix(-0.89660762,-0.44282589,0.44282589,-0.89660762,-69.289444,304.65898)"
       inkscape:transform-center-y="39.829447"
       height="343"
       width="294"
       id="use14"
       xlink:href="#c"
       x="85"
       y="97"
       style="fill:#000080;stroke:#ffffff;stroke-width:7.19999981" />
    <rect
       style="fill:#000080;stroke:#ffffff;stroke-width:7.19999981"
       rx="6.5"
       transform="matrix(-0.87461971,0.48480962,0.48480962,0.87461971,0,0)"
       height="86"
       width="13"
       y="-66.607605"
       x="-20.984785"
       id="rect3029" />
    <rect
       id="rect11"
       x="48.984798"
       y="-105.39241"
       width="13"
       height="86"
       transform="matrix(0.87461971,0.48480962,-0.48480962,0.87461971,0,0)"
       rx="6.5"
       style="fill:#000080;stroke:#ffffff;stroke-width:7.19999981" />
    <ellipse
       transform="translate(40,0)"
       sodipodi:ry="84"
       sodipodi:rx="91"
       sodipodi:cy="41"
       sodipodi:cx="0"
       cx="0"
       id="ellipse17"
       ry="84"
       rx="91"
       cy="41"
       style="fill:#000080"
       d="m 91,41 c 0,46.391919 -40.742088,84 -91,84 -50.257912,0 -91,-37.608081 -91,-84 0,-46.391919 40.742088,-84 91,-84 50.257912,0 91,37.608081 91,84 z" />
    <rect
       id="rect19"
       x="-51"
       y="40"
       width="182"
       height="162"
       rx="22"
       style="fill:#ff0000" />
    <path
       d="M -55,46.192308 H 135"
       id="path23"
       inkscape:connector-curvature="0"
       style="fill:#ffffff;stroke:#ffffff;stroke-width:13.927948" />
    <circle
       d="m -38,0 c 0,2.209139 -1.790861,4 -4,4 -2.209139,0 -4,-1.790861 -4,-4 0,-2.209139 1.790861,-4 4,-4 2.209139,0 4,1.790861 4,4 z"
       transform="translate(40,0)"
       cx="-42"
       r="4"
       id="circle25"
       cy="0"
       sodipodi:cx="-42"
       sodipodi:cy="0"
       sodipodi:rx="4"
       sodipodi:ry="4"
       style="fill:#ffffff;stroke:#ffffff;stroke-width:7.19999981" />
    <circle
       transform="translate(40,0)"
       cx="42"
       r="4"
       id="circle27"
       cy="0"
       sodipodi:cx="42"
       sodipodi:cy="0"
       sodipodi:rx="4"
       sodipodi:ry="4"
       style="fill:#ffffff;stroke:#ffffff;stroke-width:7.19999981"
       d="m 46,0 c 0,2.209139 -1.790861,4 -4,4 -2.209139,0 -4,-1.790861 -4,-4 0,-2.209139 1.790861,-4 4,-4 2.209139,0 4,1.790861 4,4 z" />
    <path
       transform="translate(-147,-68)"
       inkscape:connector-curvature="0"
       id="path3056"
       d="m 138.59337,334.65763 c -7.78594,-1.50204 -13.84428,-7.98462 -15.418,-16.49765 -0.92667,-5.01287 -1.08107,-23.3518 -0.32191,-38.2369 l 0.50021,-9.8077 19.94572,0 19.94572,0 -0.2756,24.8077 c -0.30591,27.53679 -0.33273,27.69742 -5.59665,33.52395 -4.76179,5.27072 -11.72117,7.57228 -18.77949,6.2106 z"
       style="fill:#000080;fill-opacity:1;stroke:none" />
    <path
       transform="translate(-147,-68)"
       inkscape:connector-curvature="0"
       id="path3058"
       d="m 226.95742,334.78128 c -5.87314,-1.78653 -10.84655,-6.08818 -13.38875,-11.58034 -1.50499,-3.25136 -1.62196,-5.03439 -1.85514,-28.27786 l -0.24887,-24.8077 20.05656,0 20.05657,0 -0.004,24.42308 c -0.003,14.95057 -0.32304,25.57099 -0.82612,27.38276 -1.28188,4.61652 -7.81439,10.84135 -12.96305,12.3525 -4.44923,1.30586 -7.70132,1.45832 -10.8269,0.50756 l 1e-5,0 z"
       style="fill:#000080;fill-opacity:1;stroke:none" />
    <path
       inkscape:transform-center-y="-0.30868592"
       inkscape:transform-center-x="0.32036217"
       transform="matrix(0.9987084,-0.05080886,0.05080886,0.9987084,-182.5288,-60.745811)"
       d="m 186.15385,83.769232 -9.72146,-7.077221 -10.5569,5.757221 3.72674,-11.432637 -8.73771,-8.261134 12.02471,0.01146 5.15671,-10.862882 3.70494,11.439721 11.92472,1.547503 -9.73493,7.058675 z"
       inkscape:randomized="0"
       inkscape:rounded="0"
       inkscape:flatsided="false"
       sodipodi:arg2="1.6357986"
       sodipodi:arg1="1.0074801"
       sodipodi:r2="7.5541182"
       sodipodi:r1="17.286312"
       sodipodi:cy="69.153847"
       sodipodi:cx="176.92308"
       sodipodi:sides="5"
       id="path3850"
       style="fill:#f2fe0c;fill-opacity:1;stroke:none"
       sodipodi:type="star" />
    <path
       inkscape:transform-center-y="-0.30868592"
       inkscape:transform-center-x="0.32036217"
       transform="matrix(0.9987084,-0.05080886,0.05080886,0.9987084,-98.053124,-60.419808)"
       d="m 186.15385,83.769232 -9.72146,-7.077221 -10.5569,5.757221 3.72674,-11.432637 -8.73771,-8.261134 12.02471,0.01146 5.15671,-10.862882 3.70494,11.439721 11.92472,1.547503 -9.73493,7.058675 z"
       inkscape:randomized="0"
       inkscape:rounded="0"
       inkscape:flatsided="false"
       sodipodi:arg2="1.6357986"
       sodipodi:arg1="1.0074801"
       sodipodi:r2="7.5541182"
       sodipodi:r1="17.286312"
       sodipodi:cy="69.153847"
       sodipodi:cx="176.92308"
       sodipodi:sides="5"
       id="path3850-1"
       style="fill:#f2fe0c;fill-opacity:1;stroke:none"
       sodipodi:type="star" />
  </g>
</svg>
